<?xml version="1.0" encoding="utf-8"?>
<!-- Generator: Adobe Illustrator 26.0.1, SVG Export Plug-In . SVG Version: 6.00 Build 0)  -->
<svg version="1.1" id="Layer_1" xmlns="http://www.w3.org/2000/svg" xmlns:xlink="http://www.w3.org/1999/xlink" x="0px" y="0px"
	 viewBox="0 0 171.3 32" style="enable-background:new 0 0 171.3 32;" xml:space="preserve">
<style type="text/css">
	.st0{fill:#1C2434;}
	.st1{fill:url(#SVGID_1_);}
	.st2{fill:#FFFFFF;}
</style>
<path class="st0" d="M46.6,9.6L44,10.5c-0.2-0.8-0.6-1.6-1.2-2.2c-0.6-0.5-1.3-0.8-2.1-0.7c-0.7,0-1.4,0.2-1.9,0.7
	c-0.4,0.5-0.7,1.1-0.7,1.7c0,0.6,0.2,1.2,0.7,1.6c0.9,0.6,1.9,1.1,3,1.5c1,0.3,2,0.8,2.9,1.4c0.7,0.5,1.3,1.1,1.7,1.8
	c0.4,0.8,0.6,1.7,0.6,2.6c0,1.5-0.6,3-1.7,4c-1.3,1.2-3,1.8-4.7,1.7c-3.4,0-5.6-1.7-6.4-5.2l2.8-0.8c0.5,2.3,1.7,3.4,3.8,3.4
	c0.8,0,1.7-0.3,2.3-0.8c0.5-0.5,0.8-1.2,0.8-1.9c0-0.5-0.2-1.1-0.5-1.5c-0.8-0.7-1.7-1.2-2.7-1.5c-1.1-0.4-2.2-0.8-3.2-1.4
	c-0.7-0.4-1.3-1-1.7-1.7c-0.5-0.8-0.7-1.7-0.7-2.6c0-1.4,0.5-2.8,1.6-3.7c1.1-1,2.6-1.6,4.1-1.5C43.8,5,45.8,6.6,46.6,9.6z"/>
<path class="st0" d="M52.6,8.4h-3v-3h3V8.4z M49.7,10.2h2.8V24h-2.8L49.7,10.2z"/>
<path class="st0" d="M55.9,10.2h2.6v2.1c0.5-1.5,1.9-2.4,3.4-2.4c1.6-0.1,3,1,3.2,2.6c0.4-1.6,1.9-2.7,3.5-2.6
	c0.7,0,1.4,0.2,2.1,0.5c0.5,0.3,0.9,0.8,1.2,1.4c0.3,1.1,0.4,2.3,0.3,3.4v8.7h-2.8v-8.5c0.1-0.9,0-1.8-0.3-2.6
	c-0.2-0.5-0.7-0.7-1.4-0.7c-1.4,0-2.2,1.3-2.2,3.8V24h-2.8v-8.4c0-0.8,0-1.5-0.1-2.3c-0.1-0.3-0.3-0.6-0.5-0.8
	c-0.3-0.2-0.6-0.3-1-0.3c-0.7-0.1-1.4,0.3-1.7,0.9C59,14,58.9,15,58.9,16v8h-2.8V10.2H55.9z"/>
<path class="st0" d="M75.4,10.2H78v2.3c0.5-1.5,1.8-2.5,3.4-2.5c1.4,0,2.6,0.7,3.4,1.8c1,1.6,1.4,3.4,1.3,5.2
	c0.1,1.8-0.4,3.5-1.2,5.1c-0.7,1.3-2.1,2.2-3.6,2.1c-1.3,0-2.4-0.6-3.1-1.7v6.1h-2.8V10.2z M78.3,18.3c0,0.7,0.1,1.4,0.2,2.1
	c0.1,0.5,0.4,1,0.8,1.3c0.4,0.4,0.9,0.5,1.4,0.5c1.6,0,2.4-1.7,2.4-5.1c0-3.3-0.8-4.9-2.4-4.9c-0.7,0-1.4,0.4-1.7,1
	c-0.5,0.9-0.8,1.9-0.7,2.9L78.3,18.3z"/>
<path class="st0" d="M88.8,5.4h2.8v18.7h-2.8V5.4z"/>
<path class="st0" d="M97.9,8.4h-3v-3h3V8.4z M95,10.2h2.8V24H95V10.2z"/>
<path class="st0" d="M110.7,17.8l2.8,0.4c-0.6,4.1-2.6,6.2-6.1,6.2c-2,0.1-4-0.9-5.1-2.6c-1.2-2.1-1.8-4.6-1.7-7
	c0-3.1,0.6-5.6,1.8-7.2c1.2-1.7,3.1-2.6,5.1-2.5c3.4,0,5.4,2.1,6,6.4l-2.9,0.4c-0.3-2.8-1.4-4.2-3.1-4.2c-2.4,0-3.6,2.5-3.6,7.4
	c0,4.6,1.2,6.9,3.6,6.9c0.8,0.1,1.7-0.3,2.1-1C110.1,20,110.5,18.9,110.7,17.8z"/>
<path class="st0" d="M126.2,17c0,4.9-1.8,7.4-5.5,7.4c-1.5,0.1-3-0.6-4-1.8c-1-1.2-1.4-3-1.4-5.5c0-4.8,1.8-7.2,5.5-7.2
	c1.5-0.1,3,0.6,3.9,1.8C125.8,13.3,126.3,15.1,126.2,17z M123.1,17.2c0.1-1.4-0.1-2.7-0.6-4c-0.3-0.7-1-1.1-1.8-1.1
	c-1.6,0-2.4,1.7-2.4,5.1c-0.1,1.3,0.1,2.6,0.6,3.8c0.3,0.7,1,1.2,1.8,1.2c0.8,0,1.6-0.5,1.8-1.3C123,19.7,123.2,18.5,123.1,17.2z"/>
<path class="st0" d="M128.9,5.4h2.8v18.7h-2.8V5.4z"/>
<path class="st0" d="M135.1,5.4h2.8v18.7h-2.8V5.4z"/>
<path class="st0" d="M151.3,17.6h-7.8c0,1.9,0.3,3.1,0.8,3.7c0.5,0.6,1.2,0.9,1.9,0.9c1.3,0,2.1-0.9,2.4-2.6l2.6,0.3
	c-0.7,2.9-2.4,4.4-5.1,4.4c-1.5,0.1-3-0.6-4-1.8c-1.1-1.5-1.6-3.3-1.5-5.2c-0.1-1.9,0.4-3.9,1.5-5.5c0.9-1.3,2.4-2,4-1.9
	c1.1-0.1,2.2,0.3,3,1c0.8,0.6,1.4,1.5,1.7,2.5C151.2,14.8,151.3,16.2,151.3,17.6z M148.4,15.6c0-2.4-0.8-3.7-2.4-3.7
	s-2.3,1.2-2.4,3.7H148.4z"/>
<path class="st0" d="M163.3,14.9l-2.7,0.3c0-0.8-0.3-1.7-0.7-2.4c-0.3-0.4-0.9-0.6-1.4-0.6c-0.8,0-1.5,0.5-1.8,1.2
	c-0.4,1.3-0.6,2.7-0.6,4.1c0,3.1,0.8,4.6,2.4,4.6c1.2,0,1.9-1,2.1-3l2.7,0.2c-0.4,3.4-2.1,5.1-5,5.1c-1.6,0.1-3.1-0.6-3.9-1.9
	c-0.9-1.6-1.4-3.4-1.3-5.3c-0.1-1.9,0.4-3.8,1.4-5.4c0.9-1.2,2.4-1.9,4-1.9C161.2,9.9,162.9,11.6,163.3,14.9z"/>
<path class="st0" d="M165.6,6.6l2.6-0.2v3.8h2.6v2.3h-2.6v6.1c0,0.7,0,1.4,0.1,2.1c0.1,0.3,0.3,0.6,0.5,0.9c0.4,0.2,0.9,0.3,1.4,0.3
	c0.4,0,0.7,0,1.1-0.1v2.3c-0.7,0.2-1.4,0.2-2.1,0.2c-0.8,0.1-1.7-0.1-2.4-0.6c-0.5-0.4-0.9-1-1.1-1.7c-0.2-1.1-0.3-2.2-0.2-3.3v-6.3
	h-1.8v-2.3h1.9V6.6z"/>
<g>
	<linearGradient id="SVGID_1_" gradientUnits="userSpaceOnUse" x1="16" y1="-1.887347e-07" x2="16" y2="32">
		<stop  offset="0" style="stop-color:#3FA9F5"/>
		<stop  offset="0.1345" style="stop-color:#3DA4F5"/>
		<stop  offset="0.2894" style="stop-color:#3896F6"/>
		<stop  offset="0.4544" style="stop-color:#2F7FF7"/>
		<stop  offset="0.6264" style="stop-color:#235FF9"/>
		<stop  offset="0.804" style="stop-color:#1435FC"/>
		<stop  offset="0.9838" style="stop-color:#0103FF"/>
		<stop  offset="0.9944" style="stop-color:#0000FF"/>
	</linearGradient>
	<path class="st1" d="M22.6,32H9.4C4.2,32,0,27.8,0,22.6L0,9.4C0,4.2,4.2,0,9.4,0l13.3,0C27.8,0,32,4.2,32,9.4v13.3
		C32,27.8,27.8,32,22.6,32z"/>
	<g>
		<path class="st2" d="M11.7,24.5l-6.3-4.6c-0.9-0.7-1.1-2-0.4-2.9l0,0c0.7-0.9,2-1.1,2.9-0.4l3.2,2.4c0.9,0.6,2,0.5,2.8-0.3
			l9.9-10.9c0.8-0.8,2.1-0.9,2.9-0.1l0,0c0.8,0.8,0.9,2.1,0.1,2.9L14.4,24.2C13.7,25,12.5,25.1,11.7,24.5z"/>
		<g>
			<line class="st2" x1="5.7" y1="12.4" x2="13.5" y2="18.6"/>
			<path class="st2" d="M11.4,18.8l-5.5-3.9c-0.7-0.5-0.9-1.5-0.4-2.3l0,0c0.5-0.7,1.5-0.9,2.3-0.4l5.5,3.9c0.7,0.5,0.9,1.5,0.4,2.3
				l0,0C13.1,19.1,12.1,19.3,11.4,18.8z"/>
		</g>
	</g>
</g>
</svg>
