<?xml version="1.0" encoding="utf-8"?>
<!-- Generator: Adobe Illustrator 26.0.1, SVG Export Plug-In . SVG Version: 6.00 Build 0)  -->
<svg version="1.1" xmlns="http://www.w3.org/2000/svg" xmlns:xlink="http://www.w3.org/1999/xlink" x="0px" y="0px"
	 viewBox="0 0 176 32" style="enable-background:new 0 0 176 32;" xml:space="preserve">
<style type="text/css">
	.st0{fill:#3C50E0;}
	.st1{fill:#FFFFFF;}
	.st2{opacity:0.9;}
	.st3{opacity:0.7;}
</style>
<g id="Layer_2">
</g>
<g id="Layer_1">
	<path class="st0" d="M0,8.4C0,3.8,3.8,0,8.4,0h15.2C28.2,0,32,3.8,32,8.4v15.2c0,4.7-3.8,8.4-8.4,8.4H8.4C3.8,32,0,28.2,0,23.6V8.4
		z"/>
	<g>
		<path class="st1" d="M8.4,8.4c0-0.9,0.8-1.7,1.7-1.7l0,0c0.9,0,1.7,0.8,1.7,1.7v15.2c0,0.9-0.8,1.7-1.7,1.7l0,0
			c-0.9,0-1.7-0.8-1.7-1.7V8.4z"/>
	</g>
	<g class="st2">
		<path class="st1" d="M14.7,15.2c0-0.9,0.8-1.7,1.7-1.7l0,0c0.9,0,1.7,0.8,1.7,1.7v8.4c0,0.9-0.8,1.7-1.7,1.7l0,0
			c-0.9,0-1.7-0.8-1.7-1.7V15.2z"/>
	</g>
	<g class="st3">
		<path class="st1" d="M21.1,10.9c0-0.9,0.8-1.7,1.7-1.7l0,0c0.9,0,1.7,0.8,1.7,1.7v12.6c0,0.9-0.8,1.7-1.7,1.7l0,0
			c-0.9,0-1.7-0.8-1.7-1.7V10.9z"/>
	</g>
	<g>
		<path class="st1" d="M48.1,9.3l-2.6,0.9c-0.3-1-0.7-1.7-1.2-2.2c-0.5-0.5-1.2-0.7-2.1-0.7c-0.8,0-1.4,0.2-1.9,0.7
			c-0.4,0.5-0.7,1-0.7,1.7c0,0.7,0.2,1.2,0.7,1.6c0.5,0.4,1.5,0.9,3,1.5c1.3,0.5,2.2,0.9,2.9,1.4s1.2,1,1.7,1.8
			c0.4,0.7,0.6,1.6,0.6,2.6c0,1.6-0.6,2.9-1.7,4s-2.7,1.7-4.7,1.7c-3.4,0-5.6-1.7-6.4-5.2l2.8-0.8c0.5,2.3,1.7,3.4,3.8,3.4
			c1,0,1.7-0.3,2.3-0.8c0.5-0.5,0.8-1.2,0.8-1.9c0-0.6-0.2-1.1-0.5-1.5s-1.2-1-2.7-1.5c-1.5-0.6-2.6-1-3.2-1.4
			c-0.7-0.4-1.2-1-1.7-1.7S36.6,11,36.6,10c0-1.5,0.5-2.7,1.6-3.7c1-1,2.4-1.5,4.1-1.5C45.3,4.8,47.3,6.3,48.1,9.3z"/>
		<path class="st1" d="M54.1,8.1h-3v-3h3V8.1z M51.2,10H54v13.8h-2.8V10z"/>
		<path class="st1" d="M57.4,10H60v2.1c0.7-1.6,1.8-2.4,3.4-2.4c1.7,0,2.8,0.9,3.2,2.6c0.6-1.7,1.8-2.6,3.5-2.6
			c0.8,0,1.5,0.2,2.1,0.5c0.6,0.4,0.9,0.8,1.2,1.4c0.2,0.6,0.3,1.7,0.3,3.4v8.7h-2.8v-8.5c0-1.3-0.1-2.2-0.3-2.6
			c-0.2-0.5-0.7-0.7-1.4-0.7c-1.4,0-2.2,1.3-2.2,3.8v8.1h-2.8v-8.4c0-1.2,0-2-0.1-2.3c-0.1-0.4-0.3-0.6-0.5-0.8
			c-0.3-0.2-0.6-0.3-1-0.3c-0.8,0-1.4,0.3-1.7,0.9c-0.3,0.6-0.5,1.6-0.5,2.9v8h-2.8V10z"/>
		<path class="st1" d="M77,10h2.6v2.3c0.7-1.7,1.9-2.5,3.4-2.5c1.4,0,2.5,0.6,3.4,1.8s1.3,3,1.3,5.2c0,2-0.4,3.7-1.2,5.1
			c-0.8,1.4-2,2.1-3.6,2.1c-1.3,0-2.3-0.6-3.1-1.7v6.1H77V10z M79.8,18c0,0.9,0.1,1.6,0.2,2.1c0.1,0.5,0.4,0.9,0.8,1.3
			s0.9,0.5,1.4,0.5c1.6,0,2.4-1.7,2.4-5.1c0-3.3-0.8-4.9-2.4-4.9c-0.7,0-1.3,0.3-1.7,1c-0.5,0.7-0.7,1.6-0.7,2.9V18z"/>
		<path class="st1" d="M90.3,5.1h2.8v18.7h-2.8V5.1z"/>
		<path class="st1" d="M99.4,8.1h-3v-3h3V8.1z M96.5,10h2.8v13.8h-2.8V10z"/>
		<path class="st1" d="M112.2,17.5l2.8,0.4c-0.6,4.1-2.6,6.2-6.1,6.2c-2.3,0-4-0.9-5.1-2.6c-1.1-1.7-1.7-4.1-1.7-7
			c0-3.1,0.6-5.6,1.8-7.2c1.2-1.7,2.9-2.5,5.1-2.5c3.4,0,5.4,2.1,6,6.4l-2.9,0.4c-0.3-2.8-1.4-4.2-3.1-4.2c-2.4,0-3.6,2.5-3.6,7.4
			c0,4.6,1.2,6.9,3.6,6.9c1,0,1.7-0.3,2.1-1S112,18.8,112.2,17.5z"/>
		<path class="st1" d="M127.7,16.7c0,4.9-1.8,7.4-5.5,7.4c-1.7,0-3-0.6-4-1.8s-1.4-3-1.4-5.5c0-4.8,1.8-7.2,5.5-7.2
			c1.7,0,3,0.6,3.9,1.8S127.7,14.4,127.7,16.7z M124.7,16.9c0-1.9-0.2-3.3-0.6-4s-1-1.1-1.8-1.1c-1.6,0-2.4,1.7-2.4,5.1
			c0,1.7,0.2,3,0.6,3.8c0.4,0.8,1,1.2,1.8,1.2c0.8,0,1.5-0.4,1.8-1.3C124.5,19.8,124.7,18.6,124.7,16.9z"/>
		<path class="st1" d="M130.4,5.1h2.8v18.7h-2.8V5.1z"/>
		<path class="st1" d="M136.6,5.1h2.8v18.7h-2.8V5.1z"/>
		<path class="st1" d="M152.8,17.3H145c0,1.9,0.3,3.1,0.8,3.7c0.5,0.6,1.1,0.9,1.9,0.9c1.3,0,2.1-0.9,2.4-2.6l2.6,0.3
			c-0.7,2.9-2.4,4.4-5.1,4.4c-1.7,0-3-0.6-4-1.8s-1.5-2.9-1.5-5.2c0-2.4,0.5-4.2,1.5-5.5c1-1.3,2.3-1.9,4-1.9c1.2,0,2.2,0.3,3,1
			c0.8,0.6,1.4,1.5,1.7,2.5S152.8,15.6,152.8,17.3z M149.9,15.4c0-2.4-0.8-3.7-2.4-3.7c-1.5,0-2.3,1.2-2.4,3.7H149.9z"/>
		<path class="st1" d="M164.8,14.6l-2.7,0.3c-0.1-1.2-0.4-2-0.7-2.4c-0.3-0.4-0.8-0.6-1.4-0.6c-0.8,0-1.5,0.4-1.8,1.2
			s-0.6,2.1-0.6,4.1c0,3.1,0.8,4.6,2.4,4.6c1.2,0,1.9-1,2.1-3l2.7,0.2c-0.4,3.4-2.1,5.1-5,5.1c-1.8,0-3.1-0.6-3.9-1.9
			s-1.3-3-1.3-5.3c0-2.4,0.5-4.2,1.4-5.4c0.9-1.2,2.3-1.9,4-1.9C162.8,9.6,164.4,11.3,164.8,14.6z"/>
		<path class="st1" d="M167.1,6.4l2.6-0.2V10h2.6v2.3h-2.6v6.1c0,1.1,0,1.8,0.1,2.1s0.2,0.6,0.5,0.9c0.3,0.2,0.7,0.3,1.4,0.3
			c0.3,0,0.7,0,1.1-0.1v2.3c-0.8,0.2-1.5,0.2-2.1,0.2c-1.1,0-1.9-0.2-2.4-0.6s-0.9-1-1.1-1.7s-0.2-1.8-0.2-3.3v-6.3h-1.8V10h1.9
			L167.1,6.4z"/>
	</g>
</g>
</svg>
