<?xml version="1.0" encoding="utf-8"?>
<!-- Generator: Adobe Illustrator 26.0.1, SVG Export Plug-In . SVG Version: 6.00 Build 0)  -->
<svg version="1.1" id="Layer_1" xmlns="http://www.w3.org/2000/svg" xmlns:xlink="http://www.w3.org/1999/xlink" x="0px" y="0px"
	 viewBox="0 0 176 32" style="enable-background:new 0 0 176 32;" xml:space="preserve">
<style type="text/css">
	.st0{fill:#3C50E0;}
	.st1{fill:#FFFFFF;}
	.st2{opacity:0.9;}
	.st3{opacity:0.7;}
	.st4{fill:#1C2434;}
</style>
<path class="st0" d="M0,8.4C0,3.8,3.8,0,8.4,0h15.2C28.2,0,32,3.8,32,8.4v15.2c0,4.7-3.8,8.4-8.4,8.4H8.4C3.8,32,0,28.2,0,23.6V8.4z
	"/>
<g>
	<path class="st1" d="M8.4,8.4c0-0.9,0.8-1.7,1.7-1.7l0,0c0.9,0,1.7,0.8,1.7,1.7v15.2c0,0.9-0.8,1.7-1.7,1.7l0,0
		c-0.9,0-1.7-0.8-1.7-1.7V8.4z"/>
</g>
<g class="st2">
	<path class="st1" d="M14.7,15.2c0-0.9,0.8-1.7,1.7-1.7l0,0c0.9,0,1.7,0.8,1.7,1.7v8.4c0,0.9-0.8,1.7-1.7,1.7l0,0
		c-0.9,0-1.7-0.8-1.7-1.7V15.2z"/>
</g>
<g class="st3">
	<path class="st1" d="M21.1,10.9c0-0.9,0.8-1.7,1.7-1.7l0,0c0.9,0,1.7,0.8,1.7,1.7v12.6c0,0.9-0.8,1.7-1.7,1.7l0,0
		c-0.9,0-1.7-0.8-1.7-1.7V10.9z"/>
</g>
<g>
	<path class="st4" d="M46.6,9.6L44,10.5c-0.3-1-0.7-1.7-1.2-2.2s-1.2-0.7-2.1-0.7c-0.8,0-1.4,0.2-1.9,0.7c-0.4,0.5-0.7,1-0.7,1.7
		c0,0.7,0.2,1.2,0.7,1.6c0.5,0.4,1.5,0.9,3,1.5c1.3,0.5,2.2,0.9,2.9,1.4s1.2,1,1.7,1.8c0.4,0.7,0.6,1.6,0.6,2.6c0,1.6-0.6,2.9-1.7,4
		s-2.7,1.7-4.7,1.7c-3.4,0-5.6-1.7-6.4-5.2l2.8-0.8c0.5,2.3,1.7,3.4,3.8,3.4c1,0,1.7-0.3,2.3-0.8c0.5-0.5,0.8-1.2,0.8-1.9
		c0-0.6-0.2-1.1-0.5-1.5s-1.2-1-2.7-1.5c-1.5-0.6-2.6-1-3.2-1.4c-0.7-0.4-1.2-1-1.7-1.7s-0.7-1.6-0.7-2.6c0-1.5,0.5-2.7,1.6-3.7
		c1-1,2.4-1.5,4.1-1.5C43.8,5,45.8,6.6,46.6,9.6z"/>
	<path class="st4" d="M52.6,8.4h-3v-3h3V8.4z M49.7,10.2h2.8v13.8h-2.8V10.2z"/>
	<path class="st4" d="M55.9,10.2h2.6v2.1c0.7-1.6,1.8-2.4,3.4-2.4c1.7,0,2.8,0.9,3.2,2.6c0.6-1.7,1.8-2.6,3.5-2.6
		c0.8,0,1.5,0.2,2.1,0.5c0.6,0.4,0.9,0.8,1.2,1.4c0.2,0.6,0.3,1.7,0.3,3.4v8.7h-2.8v-8.5c0-1.3-0.1-2.2-0.3-2.6
		c-0.2-0.5-0.7-0.7-1.4-0.7c-1.4,0-2.2,1.3-2.2,3.8v8.1h-2.8v-8.4c0-1.2,0-2-0.1-2.3c-0.1-0.4-0.3-0.6-0.5-0.8
		c-0.3-0.2-0.6-0.3-1-0.3c-0.8,0-1.4,0.3-1.7,0.9c-0.3,0.6-0.5,1.6-0.5,2.9v8h-2.8V10.2z"/>
	<path class="st4" d="M75.4,10.2h2.6v2.3c0.7-1.7,1.9-2.5,3.4-2.5c1.4,0,2.5,0.6,3.4,1.8s1.3,3,1.3,5.2c0,2-0.4,3.7-1.2,5.1
		c-0.8,1.4-2,2.1-3.6,2.1c-1.3,0-2.3-0.6-3.1-1.7v6.1h-2.8V10.2z M78.3,18.3c0,0.9,0.1,1.6,0.2,2.1c0.1,0.5,0.4,0.9,0.8,1.3
		s0.9,0.5,1.4,0.5c1.6,0,2.4-1.7,2.4-5.1c0-3.3-0.8-4.9-2.4-4.9c-0.7,0-1.3,0.3-1.7,1c-0.5,0.7-0.7,1.6-0.7,2.9V18.3z"/>
	<path class="st4" d="M88.8,5.4h2.8v18.7h-2.8V5.4z"/>
	<path class="st4" d="M97.9,8.4h-3v-3h3V8.4z M95,10.2h2.8v13.8H95V10.2z"/>
	<path class="st4" d="M110.7,17.8l2.8,0.4c-0.6,4.1-2.6,6.2-6.1,6.2c-2.3,0-4-0.9-5.1-2.6c-1.1-1.7-1.7-4.1-1.7-7
		c0-3.1,0.6-5.6,1.8-7.2c1.2-1.7,2.9-2.5,5.1-2.5c3.4,0,5.4,2.1,6,6.4l-2.9,0.4c-0.3-2.8-1.4-4.2-3.1-4.2c-2.4,0-3.6,2.5-3.6,7.4
		c0,4.6,1.2,6.9,3.6,6.9c1,0,1.7-0.3,2.1-1S110.5,19.1,110.7,17.8z"/>
	<path class="st4" d="M126.2,17c0,4.9-1.8,7.4-5.5,7.4c-1.7,0-3-0.6-4-1.8s-1.4-3-1.4-5.5c0-4.8,1.8-7.2,5.5-7.2
		c1.7,0,3,0.6,3.9,1.8S126.2,14.6,126.2,17z M123.1,17.2c0-1.9-0.2-3.3-0.6-4s-1-1.1-1.8-1.1c-1.6,0-2.4,1.7-2.4,5.1
		c0,1.7,0.2,3,0.6,3.8c0.4,0.8,1,1.2,1.8,1.2c0.8,0,1.5-0.4,1.8-1.3C123,20.1,123.1,18.9,123.1,17.2z"/>
	<path class="st4" d="M128.9,5.4h2.8v18.7h-2.8V5.4z"/>
	<path class="st4" d="M135.1,5.4h2.8v18.7h-2.8V5.4z"/>
	<path class="st4" d="M151.3,17.6h-7.8c0,1.9,0.3,3.1,0.8,3.7c0.5,0.6,1.1,0.9,1.9,0.9c1.3,0,2.1-0.9,2.4-2.6l2.6,0.3
		c-0.7,2.9-2.4,4.4-5.1,4.4c-1.7,0-3-0.6-4-1.8s-1.5-2.9-1.5-5.2c0-2.4,0.5-4.2,1.5-5.5c1-1.3,2.3-1.9,4-1.9c1.2,0,2.2,0.3,3,1
		c0.8,0.6,1.4,1.5,1.7,2.5S151.3,15.9,151.3,17.6z M148.4,15.6c0-2.4-0.8-3.7-2.4-3.7c-1.5,0-2.3,1.2-2.4,3.7H148.4z"/>
	<path class="st4" d="M163.3,14.9l-2.7,0.3c-0.1-1.2-0.4-2-0.7-2.4c-0.3-0.4-0.8-0.6-1.4-0.6c-0.8,0-1.5,0.4-1.8,1.2
		s-0.6,2.1-0.6,4.1c0,3.1,0.8,4.6,2.4,4.6c1.2,0,1.9-1,2.1-3l2.7,0.2c-0.4,3.4-2.1,5.1-5,5.1c-1.8,0-3.1-0.6-3.9-1.9s-1.3-3-1.3-5.3
		c0-2.4,0.5-4.2,1.4-5.4c0.9-1.2,2.3-1.9,4-1.9C161.2,9.9,162.9,11.6,163.3,14.9z"/>
	<path class="st4" d="M165.6,6.6l2.6-0.2v3.8h2.6v2.3h-2.6v6.1c0,1.1,0,1.8,0.1,2.1s0.2,0.6,0.5,0.9c0.3,0.2,0.7,0.3,1.4,0.3
		c0.3,0,0.7,0,1.1-0.1v2.3c-0.8,0.2-1.5,0.2-2.1,0.2c-1.1,0-1.9-0.2-2.4-0.6s-0.9-1-1.1-1.7s-0.2-1.8-0.2-3.3v-6.3h-1.8v-2.3h1.9
		L165.6,6.6z"/>
</g>
</svg>
