<?xml version="1.0" encoding="utf-8"?>
<!-- Generator: Adobe Illustrator 26.0.1, SVG Export Plug-In . SVG Version: 6.00 Build 0)  -->
<svg version="1.1" id="Layer_1" xmlns="http://www.w3.org/2000/svg" xmlns:xlink="http://www.w3.org/1999/xlink" x="0px" y="0px"
	 viewBox="0 0 172.8 32" style="enable-background:new 0 0 172.8 32;" xml:space="preserve">
<style type="text/css">
	.st0{fill:url(#SVGID_1_);}
	.st1{fill:#FFFFFF;}
	.st2{fill:none;}
</style>
<g>
	<linearGradient id="SVGID_1_" gradientUnits="userSpaceOnUse" x1="16" y1="-5.939000e-10" x2="16" y2="32">
		<stop  offset="0" style="stop-color:#3FA9F5"/>
		<stop  offset="0.1345" style="stop-color:#3DA4F5"/>
		<stop  offset="0.2894" style="stop-color:#3896F6"/>
		<stop  offset="0.4544" style="stop-color:#2F7FF7"/>
		<stop  offset="0.6264" style="stop-color:#235FF9"/>
		<stop  offset="0.804" style="stop-color:#1435FC"/>
		<stop  offset="0.9838" style="stop-color:#0103FF"/>
		<stop  offset="0.9944" style="stop-color:#0000FF"/>
	</linearGradient>
	<path class="st0" d="M22.6,32H9.4C4.2,32,0,27.8,0,22.6L0,9.4C0,4.2,4.2,0,9.4,0l13.3,0C27.8,0,32,4.2,32,9.4v13.3
		C32,27.8,27.8,32,22.6,32z"/>
	<g>
		<path class="st1" d="M11.7,24.5l-6.3-4.6c-0.9-0.7-1.1-2-0.4-2.9l0,0c0.7-0.9,2-1.1,2.9-0.4l3.2,2.4c0.9,0.6,2,0.5,2.8-0.3
			l9.9-10.9c0.8-0.8,2.1-0.9,2.9-0.1l0,0c0.8,0.8,0.9,2.1,0.1,2.9L14.4,24.2C13.7,25,12.5,25.1,11.7,24.5z"/>
		<g>
			<line class="st1" x1="5.7" y1="12.4" x2="13.5" y2="18.6"/>
			<path class="st1" d="M11.4,18.8l-5.5-3.9c-0.7-0.5-0.9-1.5-0.4-2.3l0,0c0.5-0.7,1.5-0.9,2.3-0.4l5.5,3.9c0.7,0.5,0.9,1.5,0.4,2.3
				l0,0C13.1,19.1,12.1,19.3,11.4,18.8z"/>
		</g>
	</g>
</g>
<path class="st1" d="M48.1,9.3l-2.6,0.9c-0.2-0.8-0.6-1.6-1.2-2.2c-0.6-0.5-1.3-0.8-2.1-0.7c-0.7,0-1.4,0.2-1.9,0.7
	c-0.4,0.5-0.7,1.1-0.7,1.7c0,0.6,0.2,1.2,0.7,1.6c0.9,0.6,1.9,1.1,3,1.5c1,0.3,2,0.8,2.9,1.4c0.7,0.5,1.3,1.1,1.7,1.8
	c0.4,0.8,0.6,1.7,0.6,2.6c0,1.5-0.6,3-1.7,4c-1.3,1.2-3,1.8-4.7,1.7c-3.4,0-5.6-1.7-6.4-5.2l2.8-0.8c0.5,2.3,1.7,3.4,3.8,3.4
	c0.8,0,1.7-0.3,2.3-0.8c0.5-0.5,0.8-1.2,0.8-1.9c0-0.5-0.2-1.1-0.5-1.5c-0.8-0.7-1.7-1.2-2.7-1.5c-1.1-0.4-2.2-0.8-3.2-1.4
	c-0.7-0.4-1.3-1-1.7-1.7C36.8,12,36.6,11,36.6,10c0-1.4,0.5-2.8,1.6-3.7c1.1-1,2.6-1.6,4.1-1.5C45.1,4.6,47.6,6.5,48.1,9.3z"/>
<path class="st1" d="M54.1,8.1h-3v-3h3V8.1z M51.2,10H54v13.8h-2.8V10z"/>
<path class="st1" d="M57.4,10H60v2.1c0.5-1.5,1.9-2.4,3.4-2.4c1.6-0.1,3,1,3.2,2.6c0.4-1.6,1.9-2.7,3.5-2.6c0.7,0,1.4,0.2,2.1,0.5
	c0.5,0.3,0.9,0.8,1.2,1.4c0.3,1.1,0.4,2.3,0.3,3.4v8.7h-2.8v-8.5c0.1-0.9,0-1.8-0.3-2.6c-0.2-0.5-0.7-0.7-1.4-0.7
	c-1.4,0-2.2,1.3-2.2,3.8v8.1h-2.8v-8.4c0-0.8,0-1.5-0.1-2.3c-0.1-0.3-0.3-0.6-0.5-0.8c-0.3-0.2-0.6-0.3-1-0.3
	c-0.7-0.1-1.4,0.3-1.7,0.9c-0.4,0.9-0.5,1.9-0.5,2.9v8h-2.8V10H57.4z"/>
<path class="st1" d="M77,10h2.6v2.3c0.5-1.5,1.8-2.5,3.4-2.5c1.4,0,2.6,0.7,3.4,1.8c1,1.6,1.4,3.4,1.3,5.2c0.1,1.8-0.4,3.5-1.2,5.1
	c-0.7,1.3-2.1,2.2-3.6,2.1c-1.3,0-2.4-0.6-3.1-1.7v6.1H77V10z M79.8,18c0,0.7,0.1,1.4,0.2,2.1c0.1,0.5,0.4,1,0.8,1.3
	c0.4,0.4,0.9,0.5,1.4,0.5c1.6,0,2.4-1.7,2.4-5.1c0-3.3-0.8-4.9-2.4-4.9c-0.7,0-1.4,0.4-1.7,1c-0.5,0.9-0.8,1.9-0.7,2.9L79.8,18z"/>
<path class="st1" d="M90.3,5.1h2.8v18.7h-2.8V5.1z"/>
<path class="st1" d="M99.4,8.1h-3v-3h3V8.1z M96.5,10h2.8v13.8h-2.8V10z"/>
<path class="st1" d="M112.2,17.5l2.8,0.4c-0.6,4.1-2.6,6.2-6.1,6.2c-2,0.1-4-0.9-5.1-2.6c-1.2-2.1-1.8-4.6-1.7-7
	c0-3.1,0.6-5.6,1.8-7.2c1.2-1.7,3.1-2.6,5.1-2.5c3.4,0,5.4,2.1,6,6.4l-2.9,0.4c-0.3-2.8-1.4-4.2-3.1-4.2c-2.4,0-3.6,2.5-3.6,7.4
	c0,4.6,1.2,6.9,3.6,6.9c0.8,0.1,1.7-0.3,2.1-1C111.6,19.7,112,18.6,112.2,17.5z"/>
<path class="st1" d="M127.7,16.7c0,4.9-1.8,7.4-5.5,7.4c-1.5,0.1-3-0.6-4-1.8c-1-1.2-1.4-3-1.4-5.5c0-4.8,1.8-7.2,5.5-7.2
	c1.5-0.1,3,0.6,3.9,1.8C127.3,13,127.8,14.8,127.7,16.7z M124.7,16.9c0.1-1.4-0.1-2.7-0.6-4c-0.3-0.7-1-1.1-1.8-1.1
	c-1.6,0-2.4,1.7-2.4,5.1c-0.1,1.3,0.1,2.6,0.6,3.8c0.3,0.7,1,1.2,1.8,1.2c0.8,0,1.6-0.5,1.8-1.3C124.6,19.4,124.8,18.2,124.7,16.9z"
	/>
<path class="st1" d="M130.4,5.1h2.8v18.7h-2.8V5.1z"/>
<path class="st1" d="M136.6,5.1h2.8v18.7h-2.8V5.1z"/>
<path class="st1" d="M152.8,17.3H145c0,1.9,0.3,3.1,0.8,3.7c0.5,0.6,1.2,0.9,1.9,0.9c1.3,0,2.1-0.9,2.4-2.6l2.6,0.3
	c-0.7,2.9-2.4,4.4-5.1,4.4c-1.5,0.1-3-0.6-4-1.8c-1.1-1.5-1.6-3.3-1.5-5.2c-0.1-1.9,0.4-3.9,1.5-5.5c0.9-1.3,2.4-2,4-1.9
	c1.1-0.1,2.2,0.3,3,1c0.8,0.6,1.4,1.5,1.7,2.5C152.7,14.5,152.8,15.9,152.8,17.3z M149.9,15.4c0-2.4-0.8-3.7-2.4-3.7
	s-2.3,1.2-2.4,3.7H149.9z"/>
<path class="st1" d="M164.8,14.6l-2.7,0.3c0-0.8-0.3-1.7-0.7-2.4c-0.3-0.4-0.9-0.6-1.4-0.6c-0.8,0-1.5,0.5-1.8,1.2
	c-0.4,1.3-0.6,2.7-0.6,4.1c0,3.1,0.8,4.6,2.4,4.6c1.2,0,1.9-1,2.1-3l2.7,0.2c-0.4,3.4-2.1,5.1-5,5.1c-1.6,0.1-3.1-0.6-3.9-1.9
	c-0.9-1.6-1.4-3.4-1.3-5.3c-0.1-1.9,0.4-3.8,1.4-5.4c0.9-1.2,2.4-1.9,4-1.9C162.8,9.6,164.4,11.3,164.8,14.6z"/>
<path class="st1" d="M167.1,6.4l2.6-0.2V10h2.6v2.3h-2.6v6.1c0,0.7,0,1.4,0.1,2.1c0.1,0.3,0.3,0.6,0.5,0.9c0.4,0.2,0.9,0.3,1.4,0.3
	c0.4,0,0.7,0,1.1-0.1v2.3c-0.7,0.2-1.4,0.2-2.1,0.2c-0.8,0.1-1.7-0.1-2.4-0.6c-0.5-0.4-0.9-1-1.1-1.7c-0.2-1.1-0.3-2.2-0.2-3.3v-6.3
	h-1.8V10h1.9V6.4z"/>
<line class="st2" x1="6.4" y1="13.8" x2="14.5" y2="20"/>
</svg>
