<svg id="Layer_2" data-name="Layer 2" xmlns="http://www.w3.org/2000/svg" xmlns:xlink="http://www.w3.org/1999/xlink" viewBox="0 0 32 32"><defs><style>.cls-1{fill:url(#linear-gradient);}.cls-2{fill:#fff;}</style><linearGradient id="linear-gradient" x1="16" x2="16" y2="32" gradientUnits="userSpaceOnUse"><stop offset="0" stop-color="#3fa9f5"/><stop offset="0.13" stop-color="#3da4f5"/><stop offset="0.29" stop-color="#3896f6"/><stop offset="0.45" stop-color="#2f7ff7"/><stop offset="0.63" stop-color="#235ff9"/><stop offset="0.8" stop-color="#1435fc"/><stop offset="0.98" stop-color="#0103ff"/><stop offset="0.99" stop-color="blue"/></linearGradient></defs><rect class="cls-1" width="32" height="32" rx="9.39"/><path class="cls-2" d="M12.59,26,6.15,21.38a2.08,2.08,0,0,1-.46-2.93h0a2.16,2.16,0,0,1,3-.44L12,20.42a2.16,2.16,0,0,0,2.84-.29l10.19-11a2.15,2.15,0,0,1,3-.15h0a2.07,2.07,0,0,1,.15,3L15.44,25.75A2.16,2.16,0,0,1,12.59,26Z" transform="translate(0 0)"/><line class="cls-2" x1="6.44" y1="13.79" x2="14.52" y2="20.04"/><path class="cls-2" d="M12.32,20.23l-5.63-4A1.61,1.61,0,0,1,6.31,14h0a1.69,1.69,0,0,1,2.33-.38l5.63,4a1.61,1.61,0,0,1,.38,2.28h0A1.68,1.68,0,0,1,12.32,20.23Z" transform="translate(0 0)"/></svg>