<svg id="Layer_1" data-name="Layer 1" xmlns="http://www.w3.org/2000/svg" xmlns:xlink="http://www.w3.org/1999/xlink" viewBox="0 0 171.3 32"><defs><style>.cls-1{fill:url(#linear-gradient);}.cls-2{fill:#1c2434;}.cls-3{fill:#fff;}</style><linearGradient id="linear-gradient" x1="16" x2="16" y2="32" gradientUnits="userSpaceOnUse"><stop offset="0" stop-color="#3fa9f5"/><stop offset="0.13" stop-color="#3da4f5"/><stop offset="0.29" stop-color="#3896f6"/><stop offset="0.45" stop-color="#2f7ff7"/><stop offset="0.63" stop-color="#235ff9"/><stop offset="0.8" stop-color="#1435fc"/><stop offset="0.98" stop-color="#0103ff"/><stop offset="0.99" stop-color="blue"/></linearGradient></defs><rect class="cls-1" width="32" height="32" rx="9.39"/><path class="cls-2" d="M46.6,9.6l-2.6.9a5.07,5.07,0,0,0-1.2-2.2,2.82,2.82,0,0,0-2.1-.7,2.49,2.49,0,0,0-1.9.7,2.61,2.61,0,0,0-.7,1.7,1.86,1.86,0,0,0,.7,1.6,13.35,13.35,0,0,0,3,1.5,13.09,13.09,0,0,1,2.9,1.4,5.88,5.88,0,0,1,1.7,1.8,5.26,5.26,0,0,1,.6,2.6,5.44,5.44,0,0,1-1.7,4,6.43,6.43,0,0,1-4.7,1.7c-3.4,0-5.6-1.7-6.4-5.2l2.8-.8c.5,2.3,1.7,3.4,3.8,3.4a3.37,3.37,0,0,0,2.3-.8,2.73,2.73,0,0,0,.8-1.9,2.46,2.46,0,0,0-.5-1.5,6.07,6.07,0,0,0-2.7-1.5,22.08,22.08,0,0,1-3.2-1.4,5.51,5.51,0,0,1-1.7-1.7,4.41,4.41,0,0,1-.7-2.6,4.71,4.71,0,0,1,1.6-3.7,5.59,5.59,0,0,1,4.1-1.5C43.8,5,45.8,6.6,46.6,9.6Z" transform="translate(0 0)"/><path class="cls-2" d="M52.6,8.4h-3v-3h3Zm-2.9,1.8h2.8V24H49.7Z" transform="translate(0 0)"/><path class="cls-2" d="M55.9,10.2h2.6v2.1a3.5,3.5,0,0,1,3.4-2.4,3,3,0,0,1,3.2,2.6,3.51,3.51,0,0,1,3.5-2.6,4.65,4.65,0,0,1,2.1.5,3.23,3.23,0,0,1,1.2,1.4,12.45,12.45,0,0,1,.3,3.4v8.7H69.4V15.4a7.16,7.16,0,0,0-.3-2.6c-.2-.5-.7-.7-1.4-.7-1.4,0-2.2,1.3-2.2,3.8V24H62.7V15.6a11.66,11.66,0,0,0-.1-2.3,1.58,1.58,0,0,0-.5-.8,1.69,1.69,0,0,0-1-.3,1.75,1.75,0,0,0-1.7.9,6.86,6.86,0,0,0-.5,2.9v8H56.1V10.2Z" transform="translate(0 0)"/><path class="cls-2" d="M75.4,10.2H78v2.3A3.56,3.56,0,0,1,81.4,10a4.05,4.05,0,0,1,3.4,1.8A8.7,8.7,0,0,1,86.1,17a10.13,10.13,0,0,1-1.2,5.1,3.89,3.89,0,0,1-3.6,2.1,3.68,3.68,0,0,1-3.1-1.7v6.1H75.4Zm2.9,8.1a10.61,10.61,0,0,0,.2,2.1,2.58,2.58,0,0,0,.8,1.3,1.87,1.87,0,0,0,1.4.5q2.4,0,2.4-5.1c0-3.3-.8-4.9-2.4-4.9a1.86,1.86,0,0,0-1.7,1,4.79,4.79,0,0,0-.7,2.9Z" transform="translate(0 0)"/><path class="cls-2" d="M88.8,5.4h2.8V24.1H88.8Z" transform="translate(0 0)"/><path class="cls-2" d="M97.9,8.4h-3v-3h3ZM95,10.2h2.8V24H95Z" transform="translate(0 0)"/><path class="cls-2" d="M110.7,17.8l2.8.4c-.6,4.1-2.6,6.2-6.1,6.2a5.68,5.68,0,0,1-5.1-2.6,12.94,12.94,0,0,1-1.7-7c0-3.1.6-5.6,1.8-7.2a5.83,5.83,0,0,1,5.1-2.5c3.4,0,5.4,2.1,6,6.4l-2.9.4c-.3-2.8-1.4-4.2-3.1-4.2-2.4,0-3.6,2.5-3.6,7.4q0,6.9,3.6,6.9a2.18,2.18,0,0,0,2.1-1A9.89,9.89,0,0,0,110.7,17.8Z" transform="translate(0 0)"/><path class="cls-2" d="M126.2,17c0,4.9-1.8,7.4-5.5,7.4a4.9,4.9,0,0,1-4-1.8c-1-1.2-1.4-3-1.4-5.5,0-4.8,1.8-7.2,5.5-7.2a4.58,4.58,0,0,1,3.9,1.8A8.58,8.58,0,0,1,126.2,17Zm-3.1.2a9.21,9.21,0,0,0-.6-4,2,2,0,0,0-1.8-1.1q-2.4,0-2.4,5.1a9.08,9.08,0,0,0,.6,3.8,1.92,1.92,0,0,0,1.8,1.2,1.8,1.8,0,0,0,1.8-1.3A7.28,7.28,0,0,0,123.1,17.2Z" transform="translate(0 0)"/><path class="cls-2" d="M128.9,5.4h2.8V24.1h-2.8Z" transform="translate(0 0)"/><path class="cls-2" d="M135.1,5.4h2.8V24.1h-2.8Z" transform="translate(0 0)"/><path class="cls-2" d="M151.3,17.6h-7.8c0,1.9.3,3.1.8,3.7a2.32,2.32,0,0,0,1.9.9c1.3,0,2.1-.9,2.4-2.6l2.6.3c-.7,2.9-2.4,4.4-5.1,4.4a4.9,4.9,0,0,1-4-1.8,7.87,7.87,0,0,1-1.5-5.2,8.78,8.78,0,0,1,1.5-5.5,4.71,4.71,0,0,1,4-1.9,4.36,4.36,0,0,1,3,1,4.89,4.89,0,0,1,1.7,2.5A15.53,15.53,0,0,1,151.3,17.6Zm-2.9-2c0-2.4-.8-3.7-2.4-3.7s-2.3,1.2-2.4,3.7Z" transform="translate(0 0)"/><path class="cls-2" d="M163.3,14.9l-2.7.3a4.86,4.86,0,0,0-.7-2.4,1.68,1.68,0,0,0-1.4-.6,1.83,1.83,0,0,0-1.8,1.2,11.74,11.74,0,0,0-.6,4.1c0,3.1.8,4.6,2.4,4.6q1.8,0,2.1-3l2.7.2c-.4,3.4-2.1,5.1-5,5.1a4.19,4.19,0,0,1-3.9-1.9,9.86,9.86,0,0,1-1.3-5.3,8.93,8.93,0,0,1,1.4-5.4,4.84,4.84,0,0,1,4-1.9C161.2,9.9,162.9,11.6,163.3,14.9Z" transform="translate(0 0)"/><path class="cls-2" d="M165.6,6.6l2.6-.2v3.8h2.6v2.3h-2.6v6.1a9.85,9.85,0,0,0,.1,2.1,2,2,0,0,0,.5.9,2.42,2.42,0,0,0,1.4.3,4.48,4.48,0,0,0,1.1-.1v2.3a8.22,8.22,0,0,1-2.1.2,3.84,3.84,0,0,1-2.4-.6,3.37,3.37,0,0,1-1.1-1.7,14.27,14.27,0,0,1-.2-3.3V12.4h-1.8V10.1h1.9Z" transform="translate(0 0)"/><path class="cls-3" d="M12.59,26,6.15,21.38a2.08,2.08,0,0,1-.46-2.93h0a2.16,2.16,0,0,1,3-.44L12,20.42a2.16,2.16,0,0,0,2.84-.29l10.19-11a2.15,2.15,0,0,1,3-.15h0a2.07,2.07,0,0,1,.15,3L15.44,25.75A2.16,2.16,0,0,1,12.59,26Z" transform="translate(0 0)"/><line class="cls-3" x1="6.44" y1="13.79" x2="14.52" y2="20.04"/><path class="cls-3" d="M12.32,20.23l-5.63-4A1.61,1.61,0,0,1,6.31,14h0a1.69,1.69,0,0,1,2.33-.38l5.63,4a1.61,1.61,0,0,1,.38,2.28h0A1.68,1.68,0,0,1,12.32,20.23Z" transform="translate(0 0)"/></svg>