<svg id="Layer_3" data-name="Layer 3" xmlns="http://www.w3.org/2000/svg" xmlns:xlink="http://www.w3.org/1999/xlink" viewBox="0 0 2732 2732"><defs><style>.cls-1{fill:url(#linear-gradient);}.cls-2{fill:#fff;}</style><linearGradient id="linear-gradient" x1="1366" x2="1366" y2="2732" gradientUnits="userSpaceOnUse"><stop offset="0" stop-color="#3fa9f5"/><stop offset="0.13" stop-color="#3da4f5"/><stop offset="0.29" stop-color="#3896f6"/><stop offset="0.45" stop-color="#2f7ff7"/><stop offset="0.63" stop-color="#235ff9"/><stop offset="0.8" stop-color="#1435fc"/><stop offset="0.98" stop-color="#0103ff"/><stop offset="0.99" stop-color="blue"/></linearGradient></defs><rect class="cls-1" width="2732" height="2732" rx="655.32"/><path class="cls-2" d="M999,2092.47,465,1700a176.93,176.93,0,0,1-37.78-247.36h0a176.93,176.93,0,0,1,247.35-37.79l276.72,203.37a176.93,176.93,0,0,0,235.88-23.75l844-931.19A176.94,176.94,0,0,1,2281.06,651h0a176.94,176.94,0,0,1,12.28,249.92L1234.92,2068.72A176.94,176.94,0,0,1,999,2092.47Z" transform="translate(-4 -2)"/><line class="cls-2" x1="485.35" y1="1056.77" x2="1154.5" y2="1584.37"/><rect class="cls-2" x="685.59" y="896.5" width="276.67" height="852.13" rx="138.33" transform="translate(-734.8 1216.27) rotate(-54.24)"/></svg>